# xmcd
#
# Track frame offsets:
#	150
#	16469
#	35628
#	52180
#	69762
#	84221
#	101939
#	118259
#	137437
#	153990
#	171572
#	186030
#
# Disc length: 2716 seconds
#
# Revision: 1
# Processed by: cddbd v1.5.2PL0 Copyright (c) Steve Scherf et al.
# Submitted via: audiograbber 1.83.01
#
DISCID=a20a9a0c
DTITLE=Karaoke Country - Country CHartbusters Vol.40
DYEAR=1900
DGENRE=Karaoke
TTITLE0=I Just Want To Dance With You (Guide Vocals)
TTITLE1=Commitment (Guide Vocals)
TTITLE2=The Shoes You're Wearing (Guide Vocals)
TTITLE3=A Man Holdin' On (Guide Vocals)
TTITLE4=Buckaroo (Guide Vocals)
TTITLE5=Bang, Bang, Bang (Guide Vocals)
TTITLE6=I Just Want To Dance With You (Performance Tracks)
TTITLE7=Commitment (Performance Tracks)
TTITLE8=The Shoes You're Wearing (Performance Tracks)
TTITLE9=A Man Holdin' On (Performance Tracks)
TTITLE10=Buckaroo (Performance Tracks)
TTITLE11=Bang, Bang, Bang (Performance Tracks)
EXTD=
EXTT0=
EXTT1=
EXTT2=
EXTT3=
EXTT4=
EXTT5=
EXTT6=
EXTT7=
EXTT8=
EXTT9=
EXTT10=
EXTT11=
PLAYORDER=
